# xmcd CD database file
#
# Track frame offsets:
#	150
#	18776
#	39321
#	62646
#	78695
#	97945
#	115784
#	131436
#	150421
#	171719
#	195225
#
# Disc length: 2813 seconds
#
# Revision: 1
# Processed by: cddbd v1.5.1PL0 Copyright (c) Steve Scherf et al.
# Submitted via: jetAudio 5
#
DISCID=7e0afb0b
DTITLE=Kenny Chesney - The Road and The Radio
DYEAR=1900
DGENRE=
TTITLE0=Tequila Loves Me
TTITLE1=Beer in Mexico
TTITLE2=The Road and The Radio
TTITLE3=Living in Fast Forward
TTITLE4=Who You'd Be Today
TTITLE5=You Save Me
TTITLE6=Summertime
TTITLE7=In a Small Town
TTITLE8=Freedom
TTITLE9=Somebody Take Me Home
TTITLE10=Like Me
EXTD=
EXTT0=
EXTT1=
EXTT2=
EXTT3=
EXTT4=
EXTT5=
EXTT6=
EXTT7=
EXTT8=
EXTT9=
EXTT10=
PLAYORDER=
